<svg width="319" height="310" viewBox="0 0 319 310" fill="none" xmlns="http://www.w3.org/2000/svg">
<path fill-rule="evenodd" clip-rule="evenodd" d="M74.8891 73.0432C97.9592 54.0776 109.453 79.6641 112.317 94.828C98.5114 135.514 78.8773 128.146 78.8773 127.826C46.2356 131.67 27.2355 124.942 21.8157 121.098C9.78978 131.35 11.0783 147.581 13.2258 154.416C15.68 172.613 10.1579 185.918 7.0901 190.297C-3.63296 204.079 0.0595797 203.386 3.63296 202.715C5.3757 202.388 7.0901 202.066 7.0901 203.432C7.0901 235.981 23.2473 272.951 31.326 287.367C31.326 235.853 42.3701 218.809 42.3701 218.809C51.2055 206.507 58.7319 207.703 61.3907 209.839C50.1011 192.155 58.5274 181.754 64.1517 178.764C80.8407 174.15 86.5469 175.88 86.5469 175.88C82.3746 153.839 94.012 150.465 100.352 151.533C113.851 151.533 117.225 156.018 117.225 158.26C145.204 176.97 163.856 179.511 169.685 178.443C201.591 184.082 210.794 186.773 210.794 186.773C244.417 195.999 255.278 224.362 256.505 237.39C262.886 259.944 250.574 280.106 243.62 287.367C233.066 298.9 220.202 302.638 215.089 303.065C193.982 303.065 173.5 297 173.5 297C173.492 297.021 173.484 297.043 173.475 297.065C162.38 292.231 154 284.62 154 281.062C156 266.662 142.833 260.395 136 259.062C134.4 262.662 138 263.562 140 263.562C144.4 267.962 140.5 271.395 138 272.562C128 274.562 128.833 262.062 130.5 255.562C131.7 239.562 120.333 235.895 114.5 236.062V239.062C117.7 242.262 120.167 244.062 121 244.562C123.4 249.762 121 251.729 119.5 252.062C113.5 252.862 113 246.395 113.5 243.062C109.5 229.862 96.1667 227.562 90 228.062C87.6 229.662 92.6667 232.395 95.5 233.562C81.5 231.162 72.3333 233.562 69.5 235.062L68 237.562C85.2 237.162 89.5 242.062 89.5 244.562C89.5 249.362 83.8333 249.229 81 248.562V250.062H89C101.8 254.462 101.333 267.895 99.5 274.062V275.562H93.5V283.062C97 290.062 110.5 295.229 116.5 296.562V297.562H106.5C104.1 301.962 109.167 303.395 112 303.562C121.76 308.574 132.13 308.498 140.211 308.438C144.383 308.407 147.946 308.381 150.5 309.062H159V307.562L149.5 307.062C147.9 304.262 149.167 301.229 150 300.062C161.885 298.577 168.195 305.039 169.79 307.254C169.722 307.445 169.685 307.55 169.685 307.55C178.03 312.164 217.441 308.939 227.36 307.55C253.13 296.017 264.277 277.543 266.629 269.747C277.427 235.66 264.379 206.849 256.505 196.704C247.178 174.15 221.122 164.881 209.26 163.066C181.281 158.965 166.106 152.173 162.015 149.29C142.381 140.064 134.984 121.151 148.5 99.5C161.118 79.287 174.523 80.3641 181.739 80.944C182.253 80.9852 182.735 81.024 183.184 81.0524C183.184 59.0113 209.26 44.5307 219 55C228.071 25.9898 252.662 30.438 269.901 33.5561C271.318 33.8125 272.686 34.06 273.991 34.279C291.171 37.1623 318.5 62.4712 318.5 62.4712C318.5 61.1897 297 39.7253 297 39.7253C273.991 13.5 233.496 8.32949 218.157 8.32949C218.924 2.12229 217.534 0.957006 217.132 0.62052C217.084 0.579874 217.05 0.551322 217.036 0.527437C217.415 0.354316 217.789 0.178506 218.157 0C217.785 0.166538 217.521 0.269148 217.343 0.338583C217.08 0.440671 217.002 0.471043 217.036 0.527437C199.719 8.43251 171.202 10.733 161.095 8.32949C140.479 6.02286 139.211 16.125 141.154 21.4644C145.327 52.9884 140.029 68.7717 136.859 72.7228C128.269 47.0937 101.579 42.1814 89.3079 42.9289C92.2531 39.5971 97.8979 39.4049 100.352 39.7253C106.979 39.7253 111.908 42.9289 113.544 44.5307C116.489 44.5307 115.998 43.4629 115.384 42.9289C103.359 34.9839 91.7622 35.3469 87.4672 36.5216C95.8117 29.858 111.601 29.0464 118.452 29.4736C98.3274 17.4278 74.2756 32.5704 64.7653 41.6474C67.465 33.7024 71.8213 31.3958 71.8213 31.3958C59.3046 28.8328 52.2895 48.6955 50.3465 58.9472C44.7017 62.2789 44.5176 68.8785 45.1312 71.7618C44.047 76.0073 40.4885 76.3353 38.6867 76.5014C38.4491 76.5233 38.242 76.5423 38.0752 76.5672C32.9212 81.1805 34.087 75.2858 35.3141 71.7618C40.2227 72.5306 43.086 63.5391 43.9041 58.9472C44.8858 47.414 38.5865 43.4629 35.3141 42.9289C33.3507 45.2355 37.1548 47.7344 37.1548 47.7344C41.5725 49.0577 40.8362 57.0424 39.9159 60.8693C37.707 67.7892 33.0644 71.0142 31.0192 71.7618C27.0923 77.6565 34.087 84.4696 38.0752 87.1393C39.5477 88.9333 41.5521 87.8868 42.3701 87.1393C42.3701 83.2949 44.2108 80.8388 45.1312 80.0912C48.0763 73.4277 53.7211 71.7618 56.1754 71.7618C62.8019 73.5558 55.255 83.1881 50.6533 87.78C46.2356 85.4734 46.5628 89.809 47.2787 92.2651C48.9967 94.3155 52.494 94.1873 54.0279 93.867C57.4639 96.1736 59.3455 94.828 59.8568 93.867L55.255 90.6633L59.8568 83.6153C63.0473 75.1576 77.5479 76.2469 84.3994 77.8487C85.1357 72.2103 78.366 72.2957 74.8891 73.0432Z" fill="#FF0000"/>
</svg>
